<svg width="108" height="108" xmlns="http://www.w3.org/2000/svg" xmlns:xlink="http://www.w3.org/1999/xlink" overflow="hidden"><defs><filter id="fx0" x="-10%" y="-10%" width="120%" height="120%" filterUnits="userSpaceOnUse" primitiveUnits="userSpaceOnUse"><feComponentTransfer color-interpolation-filters="sRGB"><feFuncR type="discrete" tableValues="0.498039 0.498039"/><feFuncG type="discrete" tableValues="0.376471 0.376471"/><feFuncB type="discrete" tableValues="0 0"/><feFuncA type="linear" slope="0.4" intercept="0"/></feComponentTransfer><feGaussianBlur stdDeviation="1.77778 1.77778"/></filter><clipPath id="clip1"><rect x="368" y="281" width="108" height="108"/></clipPath><clipPath id="clip2"><rect x="13" y="13" width="85" height="85"/></clipPath><clipPath id="clip3"><rect x="0" y="0" width="110" height="110"/></clipPath><clipPath id="clip4"><rect x="7" y="7" width="97" height="97"/></clipPath><clipPath id="clip5"><rect x="7" y="7" width="97" height="97"/></clipPath><clipPath id="clip6"><rect x="7" y="7" width="97" height="97"/></clipPath><clipPath id="clip7"><rect x="376" y="290" width="96" height="96"/></clipPath><clipPath id="clip8"><rect x="376" y="290" width="96" height="96"/></clipPath><clipPath id="clip9"><rect x="376" y="290" width="96" height="96"/></clipPath></defs><g clip-path="url(#clip1)" transform="translate(-368 -281)"><g clip-path="url(#clip2)" filter="url(#fx0)" transform="translate(366 280)"><g clip-path="url(#clip3)"><g clip-path="url(#clip4)"><g clip-path="url(#clip5)"><g clip-path="url(#clip6)"><path d="M55.1716 23.1716C72.8447 23.1716 87.1716 37.4985 87.1716 55.1716 87.1716 72.8447 72.8447 87.1716 55.1716 87.1716 37.4985 87.1716 23.1716 72.8447 23.1716 55.1716 23.1914 37.5067 37.5067 23.1914 55.1716 23.1716M55.1716 21.1716C36.3939 21.1716 21.1716 36.3939 21.1716 55.1716 21.1716 73.9493 36.3939 89.1716 55.1716 89.1716 73.9493 89.1716 89.1716 73.9493 89.1716 55.1716 89.1507 36.4026 73.9406 21.1925 55.1716 21.1716Z" stroke="#F2F2F2" fill="#7F6000"/><path d="M38.6716 50.4186C35.3579 50.4186 32.6716 47.7323 32.6716 44.4186 32.6716 41.1049 35.3579 38.4186 38.6716 38.4186 41.9853 38.4186 44.6716 41.1049 44.6716 44.4186 44.6683 47.7309 41.9839 50.4153 38.6716 50.4186ZM38.6716 40.4186C36.4625 40.4186 34.6716 42.2095 34.6716 44.4186 34.6716 46.6277 36.4625 48.4186 38.6716 48.4186 40.8807 48.4186 42.6716 46.6277 42.6716 44.4186 42.6716 42.2095 40.8807 40.4186 38.6716 40.4186Z" stroke="#F2F2F2" fill="#7F6000"/><path d="M62.6716 77.4196C59.3579 77.4196 56.6716 74.7333 56.6716 71.4196 56.6716 68.1059 59.3579 65.4196 62.6716 65.4196 65.9853 65.4196 68.6716 68.1059 68.6716 71.4196 68.6677 74.7317 65.9837 77.4157 62.6716 77.4196ZM62.6716 67.4196C60.4625 67.4196 58.6716 69.2105 58.6716 71.4196 58.6716 73.6287 60.4625 75.4196 62.6716 75.4196 64.8807 75.4196 66.6716 73.6287 66.6716 71.4196 66.6716 69.2105 64.8807 67.4196 62.6716 67.4196Z" stroke="#F2F2F2" fill="#7F6000"/><path d="M67.6716 57.0926C65.4625 57.0926 63.6716 55.3017 63.6716 53.0926 63.6716 50.8835 65.4625 49.0926 67.6716 49.0926 69.8807 49.0926 71.6716 50.8835 71.6716 53.0926 71.6716 55.3017 69.8807 57.0926 67.6716 57.0926ZM67.6716 51.0926C66.567 51.0926 65.6716 51.988 65.6716 53.0926 65.6716 54.1972 66.567 55.0926 67.6716 55.0926 68.7762 55.0926 69.6716 54.1972 69.6716 53.0926 69.6716 51.988 68.7762 51.0926 67.6716 51.0926Z" stroke="#F2F2F2" fill="#7F6000"/><path d="M33.6716 66.4196C31.4625 66.4196 29.6716 64.6287 29.6716 62.4196 29.6716 60.2105 31.4625 58.4196 33.6716 58.4196 35.8807 58.4196 37.6716 60.2105 37.6716 62.4196 37.6716 64.6287 35.8807 66.4196 33.6716 66.4196ZM33.6716 60.4196C32.567 60.4196 31.6716 61.315 31.6716 62.4196 31.6716 63.5242 32.567 64.4196 33.6716 64.4196 34.7762 64.4196 35.6716 63.5242 35.6716 62.4196 35.6716 61.315 34.7762 60.4196 33.6716 60.4196Z" stroke="#F2F2F2" fill="#7F6000"/><path d="M56.3836 38.9136C54.1745 38.9136 52.3836 37.1227 52.3836 34.9136 52.3836 32.7045 54.1745 30.9136 56.3836 30.9136 58.5927 30.9136 60.3836 32.7045 60.3836 34.9136 60.3836 37.1227 58.5927 38.9136 56.3836 38.9136ZM56.3836 32.9136C55.279 32.9136 54.3836 33.809 54.3836 34.9136 54.3836 36.0182 55.279 36.9136 56.3836 36.9136 57.4882 36.9136 58.3836 36.0182 58.3836 34.9136 58.3836 33.809 57.4882 32.9136 56.3836 32.9136Z" stroke="#F2F2F2" fill="#7F6000"/><path d="M71.6716 43.4186C70.0147 43.4186 68.6716 42.0755 68.6716 40.4186 68.6716 38.7617 70.0147 37.4186 71.6716 37.4186 73.3285 37.4186 74.6716 38.7617 74.6716 40.4186 74.6716 42.0755 73.3285 43.4186 71.6716 43.4186ZM71.6716 39.4186C71.1193 39.4186 70.6716 39.8663 70.6716 40.4186 70.6716 40.9709 71.1193 41.4186 71.6716 41.4186 72.2239 41.4186 72.6716 40.9709 72.6716 40.4186 72.6716 39.8663 72.2239 39.4186 71.6716 39.4186Z" stroke="#F2F2F2" fill="#7F6000"/><path d="M51.6716 59.0926C50.0147 59.0926 48.6716 57.7495 48.6716 56.0926 48.6716 54.4357 50.0147 53.0926 51.6716 53.0926 53.3285 53.0926 54.6716 54.4357 54.6716 56.0926 54.6716 57.7495 53.3285 59.0926 51.6716 59.0926ZM51.6716 55.0926C51.1193 55.0926 50.6716 55.5403 50.6716 56.0926 50.6716 56.6449 51.1193 57.0926 51.6716 57.0926 52.2239 57.0926 52.6716 56.6449 52.6716 56.0926 52.6716 55.5403 52.2239 55.0926 51.6716 55.0926Z" stroke="#F2F2F2" fill="#7F6000"/><path d="M80.6716 64.4196C79.0147 64.4196 77.6716 63.0765 77.6716 61.4196 77.6716 59.7627 79.0147 58.4196 80.6716 58.4196 82.3285 58.4196 83.6716 59.7627 83.6716 61.4196 83.6716 63.0765 82.3285 64.4196 80.6716 64.4196ZM80.6716 60.4196C80.1193 60.4196 79.6716 60.8673 79.6716 61.4196 79.6716 61.9719 80.1193 62.4196 80.6716 62.4196 81.2239 62.4196 81.6716 61.9719 81.6716 61.4196 81.6716 60.8673 81.2239 60.4196 80.6716 60.4196Z" stroke="#F2F2F2" fill="#7F6000"/><path d="M45.1716 77.9046C43.5147 77.9046 42.1716 76.5615 42.1716 74.9046 42.1716 73.2477 43.5147 71.9046 45.1716 71.9046 46.8285 71.9046 48.1716 73.2477 48.1716 74.9046 48.1716 76.5615 46.8285 77.9046 45.1716 77.9046ZM45.1716 73.9046C44.6193 73.9046 44.1716 74.3523 44.1716 74.9046 44.1716 75.4569 44.6193 75.9046 45.1716 75.9046 45.7239 75.9046 46.1716 75.4569 46.1716 74.9046 46.1716 74.3523 45.7239 73.9046 45.1716 73.9046Z" stroke="#F2F2F2" fill="#7F6000"/></g></g></g></g></g><g clip-path="url(#clip7)"><g clip-path="url(#clip8)"><g clip-path="url(#clip9)"><path d="M424 306C441.673 306 456 320.327 456 338 456 355.673 441.673 370 424 370 406.327 370 392 355.673 392 338 392.02 320.335 406.335 306.02 424 306M424 304C405.222 304 390 319.222 390 338 390 356.778 405.222 372 424 372 442.778 372 458 356.778 458 338 457.979 319.231 442.769 304.021 424 304Z" stroke="#F2F2F2" fill="#7F6000"/><path d="M407.5 333.247C404.186 333.247 401.5 330.561 401.5 327.247 401.5 323.933 404.186 321.247 407.5 321.247 410.814 321.247 413.5 323.933 413.5 327.247 413.497 330.559 410.812 333.244 407.5 333.247ZM407.5 323.247C405.291 323.247 403.5 325.038 403.5 327.247 403.5 329.456 405.291 331.247 407.5 331.247 409.709 331.247 411.5 329.456 411.5 327.247 411.5 325.038 409.709 323.247 407.5 323.247Z" stroke="#F2F2F2" fill="#7F6000"/><path d="M431.5 360.248C428.186 360.248 425.5 357.562 425.5 354.248 425.5 350.934 428.186 348.248 431.5 348.248 434.814 348.248 437.5 350.934 437.5 354.248 437.496 357.56 434.812 360.244 431.5 360.248ZM431.5 350.248C429.291 350.248 427.5 352.039 427.5 354.248 427.5 356.457 429.291 358.248 431.5 358.248 433.709 358.248 435.5 356.457 435.5 354.248 435.5 352.039 433.709 350.248 431.5 350.248Z" stroke="#F2F2F2" fill="#7F6000"/><path d="M436.5 339.921C434.291 339.921 432.5 338.13 432.5 335.921 432.5 333.712 434.291 331.921 436.5 331.921 438.709 331.921 440.5 333.712 440.5 335.921 440.5 338.13 438.709 339.921 436.5 339.921ZM436.5 333.921C435.395 333.921 434.5 334.816 434.5 335.921 434.5 337.026 435.395 337.921 436.5 337.921 437.605 337.921 438.5 337.026 438.5 335.921 438.5 334.816 437.605 333.921 436.5 333.921Z" stroke="#F2F2F2" fill="#7F6000"/><path d="M402.5 349.248C400.291 349.248 398.5 347.457 398.5 345.248 398.5 343.039 400.291 341.248 402.5 341.248 404.709 341.248 406.5 343.039 406.5 345.248 406.5 347.457 404.709 349.248 402.5 349.248ZM402.5 343.248C401.395 343.248 400.5 344.143 400.5 345.248 400.5 346.353 401.395 347.248 402.5 347.248 403.605 347.248 404.5 346.353 404.5 345.248 404.5 344.143 403.605 343.248 402.5 343.248Z" stroke="#F2F2F2" fill="#7F6000"/><path d="M425.212 321.742C423.003 321.742 421.212 319.951 421.212 317.742 421.212 315.533 423.003 313.742 425.212 313.742 427.421 313.742 429.212 315.533 429.212 317.742 429.212 319.951 427.421 321.742 425.212 321.742ZM425.212 315.742C424.107 315.742 423.212 316.637 423.212 317.742 423.212 318.847 424.107 319.742 425.212 319.742 426.317 319.742 427.212 318.847 427.212 317.742 427.212 316.637 426.317 315.742 425.212 315.742Z" stroke="#F2F2F2" fill="#7F6000"/><path d="M440.5 326.247C438.843 326.247 437.5 324.904 437.5 323.247 437.5 321.59 438.843 320.247 440.5 320.247 442.157 320.247 443.5 321.59 443.5 323.247 443.5 324.904 442.157 326.247 440.5 326.247ZM440.5 322.247C439.948 322.247 439.5 322.695 439.5 323.247 439.5 323.799 439.948 324.247 440.5 324.247 441.052 324.247 441.5 323.799 441.5 323.247 441.5 322.695 441.052 322.247 440.5 322.247Z" stroke="#F2F2F2" fill="#7F6000"/><path d="M420.5 341.921C418.843 341.921 417.5 340.578 417.5 338.921 417.5 337.264 418.843 335.921 420.5 335.921 422.157 335.921 423.5 337.264 423.5 338.921 423.5 340.578 422.157 341.921 420.5 341.921ZM420.5 337.921C419.948 337.921 419.5 338.369 419.5 338.921 419.5 339.473 419.948 339.921 420.5 339.921 421.052 339.921 421.5 339.473 421.5 338.921 421.5 338.369 421.052 337.921 420.5 337.921Z" stroke="#F2F2F2" fill="#7F6000"/><path d="M449.5 347.248C447.843 347.248 446.5 345.905 446.5 344.248 446.5 342.591 447.843 341.248 449.5 341.248 451.157 341.248 452.5 342.591 452.5 344.248 452.5 345.905 451.157 347.248 449.5 347.248ZM449.5 343.248C448.948 343.248 448.5 343.696 448.5 344.248 448.5 344.8 448.948 345.248 449.5 345.248 450.052 345.248 450.5 344.8 450.5 344.248 450.5 343.696 450.052 343.248 449.5 343.248Z" stroke="#F2F2F2" fill="#7F6000"/><path d="M414 360.733C412.343 360.733 411 359.39 411 357.733 411 356.076 412.343 354.733 414 354.733 415.657 354.733 417 356.076 417 357.733 417 359.39 415.657 360.733 414 360.733ZM414 356.733C413.448 356.733 413 357.181 413 357.733 413 358.285 413.448 358.733 414 358.733 414.552 358.733 415 358.285 415 357.733 415 357.181 414.552 356.733 414 356.733Z" stroke="#F2F2F2" fill="#7F6000"/></g></g></g></g></svg>