<svg width="145" height="145" xmlns="http://www.w3.org/2000/svg" xmlns:xlink="http://www.w3.org/1999/xlink" overflow="hidden"><defs><filter id="fx0" x="-10%" y="-10%" width="120%" height="120%" filterUnits="userSpaceOnUse" primitiveUnits="userSpaceOnUse"><feComponentTransfer color-interpolation-filters="sRGB"><feFuncR type="discrete" tableValues="0.964706 0.964706"/><feFuncG type="discrete" tableValues="0.964706 0.964706"/><feFuncB type="discrete" tableValues="0.580392 0.580392"/><feFuncA type="linear" slope="0.4" intercept="0"/></feComponentTransfer><feGaussianBlur stdDeviation="1.77778 1.77778"/></filter><clipPath id="clip1"><rect x="621" y="204" width="145" height="145"/></clipPath><clipPath id="clip2"><rect x="1" y="9" width="144" height="126"/></clipPath><clipPath id="clip3"><rect x="0" y="0" width="147" height="147"/></clipPath><clipPath id="clip4"><rect x="6" y="6" width="134" height="134"/></clipPath><clipPath id="clip5"><rect x="6" y="6" width="134" height="134"/></clipPath><clipPath id="clip6"><rect x="6" y="6" width="134" height="134"/></clipPath><clipPath id="clip7"><rect x="624" y="207" width="133" height="133"/></clipPath><clipPath id="clip8"><rect x="624" y="207" width="133" height="133"/></clipPath><clipPath id="clip9"><rect x="624" y="207" width="133" height="133"/></clipPath></defs><g clip-path="url(#clip1)" transform="translate(-621 -204)"><g clip-path="url(#clip2)" filter="url(#fx0)" transform="translate(620 203)"><g clip-path="url(#clip3)"><g clip-path="url(#clip4)"><g clip-path="url(#clip5)"><g clip-path="url(#clip6)"><path d="M130.223 87.1399C127.168 87.1509 124.483 89.1646 123.617 92.0938L89.9663 89.1244C89.5769 85.3635 86.2124 82.6305 82.4515 83.02 81.6477 83.1032 80.865 83.3281 80.1396 83.6843L69.8006 70.0371C72.6131 67.467 72.8096 63.1035 70.2394 60.291 67.998 57.8382 64.3265 57.3317 61.5047 59.0859L54.2138 49.462C56.3672 46.3099 55.5577 42.009 52.4056 39.8557 49.2535 37.7023 44.9526 38.5119 42.7992 41.6639 42.6178 41.9296 42.455 42.2078 42.3121 42.4963L23.4189 41.5518C22.7241 37.7915 19.1127 35.3065 15.3525 36.0011 11.5922 36.6959 9.10715 40.3074 9.80187 44.0676 10.4966 47.8279 14.1081 50.3129 17.8683 49.6183 20.5966 49.1143 22.7606 47.03 23.3668 44.3227L41.5909 45.2343C41.5849 45.3502 41.5563 45.4598 41.5563 45.5771 41.5435 49.3901 44.6243 52.4915 48.4373 52.5042 49.7738 52.5087 51.0831 52.125 52.2058 51.3999L59.4654 60.9823C57.2347 64.0578 57.9195 68.3592 60.9949 70.5899 62.8532 71.9377 65.2613 72.2698 67.4149 71.4753L77.9358 85.363C75.4075 88.1998 75.6576 92.549 78.4944 95.0772 79.4331 95.914 80.5834 96.4775 81.8201 96.7064L82.6411 108.208C78.9643 109.231 76.8128 113.04 77.8355 116.717 78.858 120.394 82.6677 122.545 86.3444 121.522 88.2985 120.979 89.9152 119.604 90.7658 117.763L109.737 122.281C110.767 125.954 114.579 128.098 118.253 127.068 121.926 126.039 124.069 122.226 123.04 118.553 122.535 116.751 121.321 115.231 119.675 114.341L127.934 100.575C128.668 100.844 129.442 100.986 130.223 100.994 134.049 100.994 137.15 97.8927 137.15 94.067 137.15 90.2413 134.049 87.1399 130.223 87.1399ZM16.6188 46.9628C14.3233 46.9628 12.4625 45.1021 12.4625 42.8066 12.4625 40.5111 14.3233 38.6503 16.6188 38.6503 18.9142 38.6503 20.775 40.5111 20.775 42.8066 20.7725 45.101 18.9131 46.9603 16.6188 46.9628ZM44.3271 45.5774C44.3271 43.2819 46.1878 41.4212 48.4833 41.4212 50.7788 41.4212 52.6396 43.2819 52.6396 45.5774 52.6396 47.8729 50.7788 49.7337 48.4833 49.7337 46.1889 49.7312 44.3296 47.8718 44.3271 45.5774ZM60.9521 64.9733C60.9521 62.6778 62.8128 60.817 65.1083 60.817 67.4038 60.817 69.2646 62.6778 69.2646 64.9733 69.2646 67.2688 67.4038 69.1295 65.1083 69.1295 62.8139 69.127 60.9546 67.2676 60.9521 64.9733ZM78.9625 89.9108C78.9625 87.6153 80.8233 85.7545 83.1188 85.7545 85.4142 85.7545 87.275 87.6153 87.275 89.9108 87.275 92.2063 85.4142 94.067 83.1188 94.067 80.8244 94.0645 78.965 92.2051 78.9625 89.9108ZM84.5042 119.005C82.2087 119.005 80.3479 117.144 80.3479 114.848 80.3479 112.553 82.2087 110.692 84.5042 110.692 86.7997 110.692 88.6604 112.553 88.6604 114.848 88.6579 117.143 86.7986 119.002 84.5042 119.005ZM116.369 124.546C114.073 124.546 112.213 122.685 112.213 120.39 112.213 118.094 114.073 116.234 116.369 116.234 118.664 116.234 120.525 118.094 120.525 120.39 120.523 122.684 118.663 124.544 116.369 124.546ZM116.935 113.52C116.745 113.505 116.563 113.463 116.369 113.463 112.94 113.473 110.036 115.993 109.543 119.386L91.4089 115.068C91.4113 114.993 91.4313 114.924 91.4313 114.848 91.4204 111.381 88.8433 108.458 85.4047 108.012L84.5941 96.6716C87.0463 96.1249 89.0098 94.2927 89.7246 91.8841L123.375 94.8532C123.56 96.5026 124.334 98.0294 125.556 99.1526ZM130.223 98.2233C127.928 98.2233 126.067 96.3625 126.067 94.067 126.067 91.7715 127.928 89.9108 130.223 89.9108 132.518 89.9108 134.379 91.7715 134.379 94.067 134.377 96.3614 132.517 98.2208 130.223 98.2233Z" stroke="#FFFFFF" stroke-width="1.38543" fill="#F6F694"/><path d="M121.91 62.6841C123.636 56.516 127.924 51.384 133.686 48.5892 127.916 45.8044 123.625 40.6683 121.91 34.4944 120.185 40.6624 115.897 45.7942 110.134 48.5892 115.897 51.3841 120.185 56.5161 121.91 62.6841ZM121.908 41.336C123.536 44.1499 125.702 46.6159 128.282 48.5939 125.705 50.5724 123.54 53.0366 121.91 55.8472 120.279 53.0343 118.112 50.5684 115.532 48.5892 118.111 46.6111 120.277 44.1468 121.908 41.336Z" stroke="#FFFFFF" stroke-width="1.38543" fill="#F6F694"/><path d="M31.6483 94.0673C30.461 98.3111 27.5109 101.842 23.5458 103.765 27.5109 105.688 30.461 109.219 31.6483 113.463 32.8353 109.219 35.7854 105.688 39.7506 103.765 35.7802 101.849 32.8279 98.3152 31.6483 94.0673ZM31.6483 107.152C30.7902 105.9 29.7765 104.762 28.6316 103.765 29.7752 102.77 30.788 101.633 31.6455 100.383 32.5028 101.635 33.516 102.773 34.6606 103.769 33.5175 104.764 32.5053 105.901 31.6483 107.152Z" stroke="#FFFFFF" stroke-width="1.38543" fill="#F6F694"/><path d="M98.3583 32.3653C99.0871 29.7601 100.898 27.5925 103.332 26.4118 100.895 25.2354 99.0824 23.0659 98.3583 20.4582 97.6296 23.0634 95.8187 25.2312 93.3847 26.4118 95.8187 27.5925 97.6296 29.7601 98.3583 32.3653Z" stroke="#FFFFFF" stroke-width="1.38543" fill="#F6F694"/></g></g></g></g></g><g clip-path="url(#clip7)"><g clip-path="url(#clip8)"><g clip-path="url(#clip9)"><path d="M747.394 287.311C744.34 287.322 741.655 289.336 740.789 292.265L707.138 289.296C706.748 285.535 703.384 282.802 699.623 283.192 698.819 283.275 698.036 283.5 697.311 283.856L686.972 270.209C689.785 267.639 689.981 263.275 687.411 260.463 685.17 258.01 681.498 257.503 678.676 259.258L671.385 249.634C673.539 246.481 672.729 242.181 669.577 240.027 666.425 237.874 662.124 238.684 659.971 241.835 659.789 242.101 659.627 242.379 659.484 242.668L640.591 241.723C639.896 237.963 636.284 235.478 632.524 236.173 628.764 236.868 626.279 240.479 626.973 244.239 627.668 247.999 631.28 250.484 635.04 249.79 637.768 249.286 639.932 247.202 640.538 244.494L658.762 245.406C658.756 245.522 658.728 245.631 658.728 245.749 658.715 249.562 661.796 252.663 665.609 252.676 666.945 252.68 668.255 252.297 669.377 251.571L676.637 261.154C674.406 264.229 675.091 268.531 678.166 270.761 680.025 272.109 682.433 272.441 684.586 271.647L695.107 285.535C692.579 288.371 692.829 292.721 695.666 295.249 696.605 296.086 697.755 296.649 698.992 296.878L699.813 308.379C696.136 309.402 693.984 313.212 695.007 316.888 696.03 320.565 699.839 322.717 703.516 321.694 705.47 321.15 707.087 319.776 707.937 317.934L726.909 322.452C727.938 326.126 731.751 328.269 735.424 327.24 739.098 326.21 741.241 322.398 740.212 318.724 739.707 316.922 738.492 315.402 736.846 314.512L745.106 300.746C745.839 301.016 746.614 301.158 747.395 301.166 751.22 301.166 754.322 298.064 754.322 294.239 754.322 290.413 751.22 287.311 747.395 287.311ZM633.79 247.134C631.495 247.134 629.634 245.274 629.634 242.978 629.634 240.683 631.495 238.822 633.79 238.822 636.086 238.822 637.947 240.683 637.947 242.978 637.944 245.273 636.085 247.132 633.79 247.134ZM661.499 245.749C661.499 243.453 663.359 241.593 665.655 241.593 667.95 241.593 669.811 243.453 669.811 245.749 669.811 248.044 667.95 249.905 665.655 249.905 663.361 249.903 661.501 248.043 661.499 245.749ZM678.124 265.145C678.124 262.849 679.984 260.989 682.28 260.989 684.575 260.989 686.436 262.849 686.436 265.145 686.436 267.44 684.575 269.301 682.28 269.301 679.986 269.299 678.126 267.439 678.124 265.145ZM696.134 290.082C696.134 287.787 697.995 285.926 700.29 285.926 702.586 285.926 704.447 287.787 704.447 290.082 704.447 292.378 702.586 294.239 700.29 294.239 697.996 294.236 696.137 292.377 696.134 290.082ZM701.676 319.176C699.38 319.176 697.519 317.315 697.519 315.02 697.519 312.724 699.38 310.864 701.676 310.864 703.971 310.864 705.832 312.724 705.832 315.02 705.829 317.314 703.97 319.174 701.676 319.176ZM733.54 324.718C731.245 324.718 729.384 322.857 729.384 320.561 729.384 318.266 731.245 316.405 733.54 316.405 735.836 316.405 737.697 318.266 737.697 320.561 737.694 322.856 735.835 324.715 733.54 324.718ZM734.107 313.692C733.917 313.676 733.734 313.634 733.54 313.634 730.112 313.644 727.208 316.164 726.715 319.557L708.581 315.24C708.583 315.165 708.603 315.095 708.603 315.02 708.592 311.552 706.015 308.629 702.576 308.184L701.766 296.843C704.218 296.296 706.181 294.464 706.896 292.056L740.547 295.025C740.731 296.674 741.506 298.201 742.728 299.324ZM747.394 298.395C745.099 298.395 743.238 296.534 743.238 294.239 743.238 291.943 745.099 290.082 747.394 290.082 749.69 290.082 751.551 291.943 751.551 294.239 751.548 296.533 749.689 298.392 747.394 298.395Z" stroke="#FFFFFF" stroke-width="1.38543" fill="#F6F694"/><path d="M739.082 262.856C740.807 256.688 745.095 251.556 750.858 248.761 745.087 245.976 740.796 240.84 739.082 234.666 737.356 240.834 733.069 245.966 727.306 248.761 733.069 251.556 737.356 256.688 739.082 262.856ZM739.079 241.508C740.708 244.321 742.874 246.788 745.454 248.765 742.877 250.744 740.712 253.208 739.082 256.019 737.451 253.206 735.284 250.74 732.704 248.761 735.282 246.783 737.448 244.318 739.079 241.508Z" stroke="#FFFFFF" stroke-width="1.38543" fill="#F6F694"/><path d="M648.82 294.239C647.633 298.483 644.682 302.014 640.717 303.937 644.682 305.86 647.633 309.391 648.82 313.635 650.007 309.391 652.957 305.86 656.922 303.937 652.952 302.021 649.999 298.487 648.82 294.239ZM648.82 307.323C647.962 306.071 646.948 304.933 645.803 303.937 646.947 302.941 647.96 301.805 648.817 300.554 649.674 301.806 650.688 302.944 651.832 303.94 650.689 304.936 649.677 306.073 648.82 307.323Z" stroke="#FFFFFF" stroke-width="1.38543" fill="#F6F694"/><path d="M715.53 232.537C716.259 229.932 718.07 227.764 720.504 226.583 718.066 225.407 716.254 223.238 715.53 220.63 714.801 223.235 712.99 225.403 710.556 226.583 712.99 227.764 714.801 229.932 715.53 232.537Z" stroke="#FFFFFF" stroke-width="1.38543" fill="#F6F694"/></g></g></g></g></svg>