<svg width="108" height="108" xmlns="http://www.w3.org/2000/svg" xmlns:xlink="http://www.w3.org/1999/xlink" overflow="hidden"><defs><filter id="fx0" x="-10%" y="-10%" width="120%" height="120%" filterUnits="userSpaceOnUse" primitiveUnits="userSpaceOnUse"><feComponentTransfer color-interpolation-filters="sRGB"><feFuncR type="discrete" tableValues="1 1"/><feFuncG type="discrete" tableValues="0.752941 0.752941"/><feFuncB type="discrete" tableValues="0 0"/><feFuncA type="linear" slope="0.4" intercept="0"/></feComponentTransfer><feGaussianBlur stdDeviation="1.77778 1.77778"/></filter><clipPath id="clip1"><rect x="590" y="191" width="108" height="108"/></clipPath><clipPath id="clip2"><rect x="1" y="5" width="103" height="93"/></clipPath><clipPath id="clip3"><rect x="0" y="0" width="110" height="110"/></clipPath><clipPath id="clip4"><rect x="6" y="6" width="97" height="97"/></clipPath><clipPath id="clip5"><rect x="6" y="6" width="97" height="97"/></clipPath><clipPath id="clip6"><rect x="6" y="6" width="97" height="97"/></clipPath><clipPath id="clip7"><rect x="593" y="194" width="96" height="96"/></clipPath><clipPath id="clip8"><rect x="593" y="194" width="96" height="96"/></clipPath><clipPath id="clip9"><rect x="593" y="194" width="96" height="96"/></clipPath></defs><g clip-path="url(#clip1)" transform="translate(-590 -191)"><g clip-path="url(#clip2)" filter="url(#fx0)" transform="translate(589 190)"><g clip-path="url(#clip3)"><g clip-path="url(#clip4)"><g clip-path="url(#clip5)"><g clip-path="url(#clip6)"><path d="M47.9894 19.1154C49.6826 19.6652 51.335 20.3335 52.9344 21.1154 70.1885 29.7751 77.2045 50.7476 68.6344 68.0464 60.1275 85.3134 39.2337 92.4148 21.9667 83.9079 21.9205 83.8852 21.8744 83.8623 21.8284 83.8394 20.2187 83.033 18.6729 82.105 17.2044 81.0634 31.7139 80.7381 44.8504 72.4056 51.3284 59.4184 57.827 46.4143 56.5395 30.8728 47.9894 19.1154ZM42.5334 15.8284C57.0099 30.2757 57.0336 53.723 42.5863 68.1995 35.6339 75.1659 26.1944 79.0782 16.3524 79.0724 14.6735 79.0729 12.9966 78.958 11.3334 78.7284 14.1465 81.5238 17.3871 83.8531 20.9334 85.6284 39.2441 94.7085 61.4487 87.2257 70.5288 68.915 79.6089 50.6044 72.126 28.3998 53.8154 19.3197 50.2659 17.5595 46.4567 16.3807 42.5334 15.8284Z" stroke="#FFFFFF" fill="#FFC000"/><path d="M88.6544 57.2284 88.6544 57.2284 88.8674 57.5424C89.4175 58.3588 90.335 58.8512 91.3194 58.8584 91.5595 58.858 91.7986 58.8281 92.0314 58.7694L92.4454 58.6624 92.4454 58.6624 92.0664 59.2214C91.4112 60.2061 91.4179 61.4896 92.0834 62.4674L92.2014 62.6374C92.2114 62.6514 92.2014 62.6584 92.1904 62.6524L91.9134 62.5524 91.8134 62.5174 91.7134 62.4924C91.4572 62.4269 91.1939 62.3933 90.9294 62.3924 90.0976 62.3917 89.3 62.7237 88.7144 63.3144L88.6424 63.3874 88.5774 63.4654 88.2304 63.8924 88.2304 63.8924 88.2304 63.4284C88.2639 62.4956 87.8347 61.6064 87.0834 61.0524L86.9324 60.9014 86.6654 60.7604 86.0754 60.4484 86.0754 60.4484 86.3754 60.3814 86.6124 60.3284 86.8284 60.2174C87.8764 59.7589 88.5738 58.746 88.6284 57.6034ZM87.7924 53.1964C87.705 53.1985 87.6181 53.2106 87.5334 53.2324 87.1281 53.3466 86.8443 53.7114 86.8334 54.1324L86.6334 57.5324C86.5931 57.9423 86.3207 58.2925 85.9334 58.4324L82.8334 59.1324C82.3271 59.2702 82.0285 59.7923 82.1663 60.2986 82.2449 60.5874 82.4551 60.8223 82.7334 60.9324L84.0334 61.6324 85.7334 62.5324C85.8334 62.6324 86.0334 62.7324 86.1334 62.9324 86.2142 63.0859 86.249 63.2596 86.2334 63.4324L86.2334 66.8284C86.2018 67.2309 86.4497 67.6027 86.8334 67.7284 86.9315 67.7534 87.0322 67.7661 87.1334 67.7664 87.4347 67.7661 87.7232 67.6443 87.9334 67.4284L90.1334 64.7284C90.3437 64.5128 90.6322 64.3913 90.9334 64.3914 91.0345 64.3914 91.1353 64.4038 91.2334 64.4284L94.5334 65.6284C94.6315 65.653 94.7323 65.6655 94.8334 65.6654 95.1346 65.6655 95.4231 65.544 95.6334 65.3284 95.9112 65.0263 95.9522 64.5756 95.7334 64.2284L93.7334 61.3284C93.5333 61.0251 93.5333 60.6317 93.7334 60.3284L95.6334 57.5284C95.9373 57.0832 95.8227 56.4759 95.3774 56.1721 95.21 56.0578 95.0111 55.9985 94.8084 56.0024 94.749 56.0015 94.6899 56.0102 94.6334 56.0284L91.5334 56.8284C91.4641 56.8458 91.3929 56.8546 91.3214 56.8544 91.0048 56.8501 90.7104 56.691 90.5334 56.4284L88.6334 53.6284C88.4554 53.3678 88.1647 53.2066 87.8494 53.1934Z" stroke="#FFFFFF" fill="#FFC000"/><path d="M80.5794 16.5054 80.5794 16.5054 83.6174 19.5434C84.2825 20.2025 85.181 20.5723 86.1174 20.5724 86.6377 20.5752 87.1515 20.456 87.6174 20.2244L91.1174 18.5134 91.1174 18.5134 89.4894 22.4654 89.4634 22.5294 89.4414 22.5954C88.9872 23.8763 89.2755 25.3033 90.1914 26.3074L93.0994 29.4454 93.0994 29.4454 88.8224 28.7454C88.6426 28.7196 88.4611 28.7065 88.2794 28.7064 86.9695 28.6885 85.7639 29.419 85.1734 30.5884L83.1734 34.2184 83.1734 34.2184 82.5164 30.2024 82.4904 30.0444 82.4394 29.8934C82.2771 29.303 81.9745 28.7606 81.5574 28.3124L81.4164 28.1714 81.2514 28.0614C81.1904 28.0204 81.1364 27.9794 81.0844 27.9414 80.7513 27.677 80.3765 27.4698 79.9754 27.3284L79.9464 27.3184 79.9164 27.3094 76.9244 26.4094 75.5834 26.0004 75.5834 26.0004 79.2284 24.2174C80.5878 23.5435 81.3526 22.0653 81.1174 20.5664ZM79.9474 13.8284C79.7382 13.8219 79.5297 13.8558 79.3334 13.9284 78.7636 14.2572 78.4185 14.8707 78.4334 15.5284L79.1334 20.8284C79.2571 21.481 78.9297 22.1358 78.3334 22.4284L73.6334 24.7284C73.0371 25.021 72.7097 25.6758 72.8334 26.3284 72.9379 26.9625 73.4097 27.4736 74.0334 27.6284L76.3334 28.3284 79.3334 29.2284C79.6214 29.3583 79.8905 29.5265 80.1334 29.7284 80.3251 29.9616 80.4618 30.2351 80.5334 30.5284L81.4334 36.0284C81.5149 36.7098 82.052 37.247 82.7334 37.3284 82.803 37.3382 82.8731 37.3432 82.9434 37.3434 83.5165 37.3204 84.0222 36.9617 84.2334 36.4284L86.9334 31.5284C87.18 31.016 87.7039 30.6956 88.2724 30.7094 88.3597 30.7094 88.447 30.7157 88.5334 30.7284L94.0334 31.6284C94.1198 31.6411 94.2071 31.6474 94.2944 31.6474 94.8628 31.6607 95.3864 31.3404 95.6334 30.8284 95.9301 30.2419 95.8516 29.5355 95.4334 29.0284L91.6334 24.9284C91.2317 24.4584 91.1168 23.8075 91.3334 23.2284L93.4334 18.1284C93.65 17.5493 93.5351 16.8984 93.1334 16.4284 92.8268 16.1448 92.4251 15.9863 92.0074 15.9844 91.8066 15.9797 91.6082 16.0294 91.4334 16.1284L86.7334 18.4284C86.5411 18.5241 86.3291 18.5734 86.1144 18.5724 85.7101 18.5705 85.3223 18.4112 85.0334 18.1284L81.2334 14.3284C80.9059 14.0146 80.4719 13.8361 80.0184 13.8284Z" stroke="#FFFFFF" fill="#FFC000"/></g></g></g></g></g><g clip-path="url(#clip7)"><g clip-path="url(#clip8)"><g clip-path="url(#clip9)"><path d="M634.161 206.287C635.854 206.837 637.507 207.505 639.106 208.287 656.36 216.947 663.376 237.919 654.806 255.218 646.299 272.485 625.405 279.586 608.138 271.079 608.092 271.057 608.046 271.034 608 271.011 606.39 270.205 604.844 269.277 603.376 268.235 617.885 267.91 631.022 259.577 637.5 246.59 643.999 233.586 642.711 218.044 634.161 206.287ZM628.705 203C643.182 217.447 643.205 240.895 628.758 255.371 621.805 262.337 612.366 266.25 602.524 266.244 600.845 266.245 599.168 266.13 597.505 265.9 600.318 268.695 603.559 271.025 607.105 272.8 625.416 281.88 647.62 274.397 656.7 256.087 665.781 237.776 658.298 215.571 639.987 206.491 636.438 204.731 632.628 203.552 628.705 203Z" stroke="#FFFFFF" fill="#FFC000"/><path d="M674.826 244.4 674.826 244.4 675.039 244.714C675.589 245.53 676.507 246.023 677.491 246.03 677.731 246.03 677.97 246 678.203 245.941L678.617 245.834 678.617 245.834 678.238 246.393C677.583 247.378 677.589 248.661 678.255 249.639L678.373 249.809C678.383 249.823 678.373 249.83 678.362 249.824L678.085 249.724 677.985 249.689 677.885 249.664C677.629 249.598 677.365 249.565 677.101 249.564 676.269 249.563 675.472 249.895 674.886 250.486L674.814 250.559 674.749 250.637 674.402 251.064 674.402 251.064 674.402 250.6C674.435 249.667 674.006 248.778 673.255 248.224L673.104 248.073 672.837 247.932 672.247 247.62 672.247 247.62 672.547 247.553 672.784 247.5 673 247.389C674.048 246.93 674.745 245.918 674.8 244.775ZM673.964 240.368C673.877 240.37 673.79 240.382 673.705 240.404 673.3 240.518 673.016 240.883 673.005 241.304L672.805 244.704C672.765 245.114 672.492 245.464 672.105 245.604L669.005 246.304C668.499 246.442 668.2 246.964 668.338 247.47 668.417 247.759 668.627 247.994 668.905 248.104L670.205 248.804 671.905 249.704C672.005 249.804 672.205 249.904 672.305 250.104 672.386 250.258 672.421 250.431 672.405 250.604L672.405 254C672.373 254.402 672.621 254.774 673.005 254.9 673.103 254.925 673.204 254.938 673.305 254.938 673.606 254.938 673.895 254.816 674.105 254.6L676.305 251.9C676.515 251.684 676.804 251.563 677.105 251.563 677.206 251.563 677.307 251.575 677.405 251.6L680.705 252.8C680.803 252.825 680.904 252.837 681.005 252.837 681.306 252.837 681.595 252.716 681.805 252.5 682.083 252.198 682.124 251.747 681.905 251.4L679.905 248.5C679.705 248.197 679.705 247.803 679.905 247.5L681.805 244.7C682.109 244.255 681.994 243.647 681.549 243.344 681.382 243.229 681.183 243.17 680.98 243.174 680.921 243.173 680.862 243.182 680.805 243.2L677.705 244C677.636 244.017 677.565 244.026 677.493 244.026 677.176 244.022 676.882 243.863 676.705 243.6L674.805 240.8C674.627 240.539 674.336 240.378 674.021 240.365Z" stroke="#FFFFFF" fill="#FFC000"/><path d="M666.751 203.677 666.751 203.677 669.789 206.715C670.454 207.374 671.353 207.744 672.289 207.744 672.809 207.747 673.323 207.628 673.789 207.396L677.289 205.685 677.289 205.685 675.661 209.637 675.635 209.701 675.613 209.767C675.159 211.048 675.447 212.475 676.363 213.479L679.271 216.617 679.271 216.617 674.994 215.917C674.814 215.891 674.633 215.878 674.451 215.878 673.141 215.86 671.935 216.591 671.345 217.76L669.345 221.39 669.345 221.39 668.688 217.374 668.662 217.216 668.611 217.065C668.449 216.475 668.146 215.932 667.729 215.484L667.588 215.343 667.423 215.233C667.362 215.192 667.308 215.151 667.256 215.113 666.923 214.849 666.548 214.641 666.147 214.5L666.118 214.49 666.088 214.481 663.096 213.581 661.755 213.172 661.755 213.172 665.4 211.389C666.759 210.715 667.524 209.237 667.289 207.738ZM666.119 201C665.91 200.993 665.701 201.027 665.505 201.1 664.935 201.429 664.59 202.042 664.605 202.7L665.305 208C665.429 208.653 665.101 209.307 664.505 209.6L659.805 211.9C659.209 212.193 658.881 212.847 659.005 213.5 659.109 214.134 659.581 214.645 660.205 214.8L662.505 215.5 665.505 216.4C665.793 216.53 666.062 216.698 666.305 216.9 666.497 217.133 666.633 217.407 666.705 217.7L667.605 223.2C667.687 223.881 668.224 224.419 668.905 224.5 668.975 224.51 669.045 224.515 669.115 224.515 669.688 224.492 670.194 224.133 670.405 223.6L673.105 218.7C673.352 218.188 673.875 217.867 674.444 217.881 674.531 217.881 674.619 217.887 674.705 217.9L680.205 218.8C680.291 218.813 680.379 218.819 680.466 218.819 681.034 218.832 681.558 218.512 681.805 218 682.102 217.413 682.023 216.707 681.605 216.2L677.805 212.1C677.403 211.63 677.288 210.979 677.505 210.4L679.605 205.3C679.822 204.721 679.707 204.07 679.305 203.6 678.998 203.316 678.597 203.158 678.179 203.156 677.978 203.151 677.78 203.201 677.605 203.3L672.905 205.6C672.713 205.696 672.501 205.745 672.286 205.744 671.882 205.742 671.494 205.583 671.205 205.3L667.405 201.5C667.078 201.186 666.643 201.008 666.19 201Z" stroke="#FFFFFF" fill="#FFC000"/></g></g></g></g></svg>