<svg width="108" height="108" xmlns="http://www.w3.org/2000/svg" xmlns:xlink="http://www.w3.org/1999/xlink" overflow="hidden"><defs><filter id="fx0" x="-10%" y="-10%" width="120%" height="120%" filterUnits="userSpaceOnUse" primitiveUnits="userSpaceOnUse"><feComponentTransfer color-interpolation-filters="sRGB"><feFuncR type="discrete" tableValues="0.439216 0.439216"/><feFuncG type="discrete" tableValues="0.678431 0.678431"/><feFuncB type="discrete" tableValues="0.278431 0.278431"/><feFuncA type="linear" slope="0.4" intercept="0"/></feComponentTransfer><feGaussianBlur stdDeviation="1.77778 1.77778"/></filter><clipPath id="clip1"><rect x="652" y="214" width="108" height="108"/></clipPath><clipPath id="clip2"><rect x="13" y="13" width="85" height="85"/></clipPath><clipPath id="clip3"><rect x="0" y="0" width="110" height="110"/></clipPath><clipPath id="clip4"><rect x="6" y="6" width="97" height="97"/></clipPath><clipPath id="clip5"><rect x="6" y="6" width="97" height="97"/></clipPath><clipPath id="clip6"><rect x="6" y="6" width="97" height="97"/></clipPath><clipPath id="clip7"><rect x="655" y="218" width="96" height="96"/></clipPath><clipPath id="clip8"><rect x="655" y="218" width="96" height="96"/></clipPath><clipPath id="clip9"><rect x="655" y="218" width="96" height="96"/></clipPath></defs><g clip-path="url(#clip1)" transform="translate(-652 -214)"><g clip-path="url(#clip2)" filter="url(#fx0)" transform="translate(651 214)"><g clip-path="url(#clip3)"><g clip-path="url(#clip4)"><g clip-path="url(#clip5)"><g clip-path="url(#clip6)"><path d="M54.8284 20.8284C36.0507 20.8284 20.8284 36.0507 20.8284 54.8284 20.8284 73.6061 36.0507 88.8284 54.8284 88.8284 73.6061 88.8284 88.8284 73.6061 88.8284 54.8284 88.8075 36.0594 73.5974 20.8493 54.8284 20.8284ZM85.2154 44.8154 72.9574 44.8154C71.8528 44.8154 70.9574 43.92 70.9574 42.8154 70.9574 41.7108 71.8528 40.8154 72.9574 40.8154L83.5904 40.8154C84.2216 42.1106 84.7645 43.4469 85.2154 44.8154ZM42.3284 46.8284 60.3284 46.8284C61.433 46.8284 62.3284 47.7238 62.3284 48.8284 62.3284 49.933 61.433 50.8284 60.3284 50.8284L23.0874 50.8284C23.8229 44.9689 26.1731 39.4292 29.8754 34.8284L49.5754 34.8284C50.68 34.8284 51.5754 35.7238 51.5754 36.8284 51.5754 37.933 50.68 38.8284 49.5754 38.8284L42.3284 38.8284C40.1193 38.8284 38.3284 40.6193 38.3284 42.8284 38.3284 45.0375 40.1193 46.8284 42.3284 46.8284ZM24.4374 64.8284 37.9574 64.8284C39.062 64.8284 39.9574 65.7238 39.9574 66.8284 39.9574 67.933 39.062 68.8284 37.9574 68.8284L26.0574 68.8284C25.427 67.5335 24.8857 66.1971 24.4374 64.8284ZM54.8284 86.8284C43.4028 86.8202 32.8478 80.7224 27.1334 70.8284L37.9574 70.8284C40.1665 70.8284 41.9574 69.0375 41.9574 66.8284 41.9574 64.6193 40.1665 62.8284 37.9574 62.8284L23.8404 62.8284C23.1668 60.2151 22.8268 57.5271 22.8284 54.8284 22.8284 54.1554 22.8564 53.4894 22.8974 52.8284L60.3284 52.8284C62.5375 52.8284 64.3284 51.0375 64.3284 48.8284 64.3284 46.6193 62.5375 44.8284 60.3284 44.8284L42.3284 44.8284C41.2238 44.8284 40.3284 43.933 40.3284 42.8284 40.3284 41.7238 41.2238 40.8284 42.3284 40.8284L49.5784 40.8284C51.7875 40.8284 53.5784 39.0375 53.5784 36.8284 53.5784 34.6193 51.7875 32.8284 49.5784 32.8284L31.6284 32.8284C43.7516 20.0068 63.9732 19.4406 76.7948 31.5638 79.0447 33.6911 80.9734 36.1342 82.5204 38.8164L72.9574 38.8164C70.7483 38.8164 68.9574 40.6073 68.9574 42.8164 68.9574 45.0255 70.7483 46.8164 72.9574 46.8164L85.8124 46.8164C86.4886 49.4333 86.83 52.1255 86.8284 54.8284 86.8284 55.5004 86.8004 56.1654 86.7594 56.8284L69.0764 56.8284C66.8673 56.8284 65.0764 58.6193 65.0764 60.8284 65.0764 63.0375 66.8673 64.8284 69.0764 64.8284L71.3284 64.8284C72.433 64.8284 73.3284 65.7238 73.3284 66.8284 73.3284 67.933 72.433 68.8284 71.3284 68.8284L53.3284 68.8284C51.1193 68.8284 49.3284 70.6193 49.3284 72.8284 49.3284 75.0375 51.1193 76.8284 53.3284 76.8284L78.0344 76.8284C72.0049 83.2133 63.6103 86.8308 54.8284 86.8284ZM71.3284 62.8284 69.0784 62.8284C67.9738 62.8284 67.0784 61.933 67.0784 60.8284 67.0784 59.7238 67.9738 58.8284 69.0784 58.8284L86.5694 58.8284C85.8343 64.6878 83.4844 70.2275 79.7824 74.8284L53.3284 74.8284C52.2238 74.8284 51.3284 73.933 51.3284 72.8284 51.3284 71.7238 52.2238 70.8284 53.3284 70.8284L71.3284 70.8284C73.5375 70.8284 75.3284 69.0375 75.3284 66.8284 75.3284 64.6193 73.5375 62.8284 71.3284 62.8284Z" stroke="#FFFFFF" fill="#70AD47"/></g></g></g></g></g><g clip-path="url(#clip7)"><g clip-path="url(#clip8)"><g clip-path="url(#clip9)"><path d="M703 232C684.222 232 669 247.222 669 266 669 284.778 684.222 300 703 300 721.778 300 737 284.778 737 266 736.979 247.231 721.769 232.021 703 232ZM733.387 255.987 721.129 255.987C720.024 255.987 719.129 255.092 719.129 253.987 719.129 252.882 720.024 251.987 721.129 251.987L731.762 251.987C732.393 253.282 732.936 254.618 733.387 255.987ZM690.5 258 708.5 258C709.605 258 710.5 258.895 710.5 260 710.5 261.105 709.605 262 708.5 262L671.259 262C671.995 256.141 674.345 250.601 678.047 246L697.747 246C698.852 246 699.747 246.895 699.747 248 699.747 249.105 698.852 250 697.747 250L690.5 250C688.291 250 686.5 251.791 686.5 254 686.5 256.209 688.291 258 690.5 258ZM672.609 276 686.129 276C687.234 276 688.129 276.895 688.129 278 688.129 279.105 687.234 280 686.129 280L674.229 280C673.599 278.705 673.057 277.369 672.609 276ZM703 298C691.574 297.992 681.019 291.894 675.305 282L686.129 282C688.338 282 690.129 280.209 690.129 278 690.129 275.791 688.338 274 686.129 274L672.012 274C671.338 271.387 670.998 268.699 671 266 671 265.327 671.028 264.661 671.069 264L708.5 264C710.709 264 712.5 262.209 712.5 260 712.5 257.791 710.709 256 708.5 256L690.5 256C689.395 256 688.5 255.105 688.5 254 688.5 252.895 689.395 252 690.5 252L697.75 252C699.959 252 701.75 250.209 701.75 248 701.75 245.791 699.959 244 697.75 244L679.8 244C691.923 231.178 712.145 230.612 724.966 242.735 727.216 244.863 729.145 247.306 730.692 249.988L721.129 249.988C718.92 249.988 717.129 251.779 717.129 253.988 717.129 256.197 718.92 257.988 721.129 257.988L733.984 257.988C734.66 260.605 735.002 263.297 735 266 735 266.672 734.972 267.337 734.931 268L717.248 268C715.039 268 713.248 269.791 713.248 272 713.248 274.209 715.039 276 717.248 276L719.5 276C720.605 276 721.5 276.895 721.5 278 721.5 279.105 720.605 280 719.5 280L701.5 280C699.291 280 697.5 281.791 697.5 284 697.5 286.209 699.291 288 701.5 288L726.206 288C720.177 294.385 711.782 298.002 703 298ZM719.5 274 717.25 274C716.145 274 715.25 273.105 715.25 272 715.25 270.895 716.145 270 717.25 270L734.741 270C734.006 275.859 731.656 281.399 727.954 286L701.5 286C700.395 286 699.5 285.105 699.5 284 699.5 282.895 700.395 282 701.5 282L719.5 282C721.709 282 723.5 280.209 723.5 278 723.5 275.791 721.709 274 719.5 274Z" stroke="#FFFFFF" fill="#70AD47"/></g></g></g></g></svg>