<svg width="108" height="108" xmlns="http://www.w3.org/2000/svg" xmlns:xlink="http://www.w3.org/1999/xlink" overflow="hidden"><defs><filter id="fx0" x="-10%" y="-10%" width="120%" height="120%" filterUnits="userSpaceOnUse" primitiveUnits="userSpaceOnUse"><feComponentTransfer color-interpolation-filters="sRGB"><feFuncR type="discrete" tableValues="1 1"/><feFuncG type="discrete" tableValues="0.752941 0.752941"/><feFuncB type="discrete" tableValues="0 0"/><feFuncA type="linear" slope="0.4" intercept="0"/></feComponentTransfer><feGaussianBlur stdDeviation="1.77778 1.77778"/></filter><clipPath id="clip1"><rect x="687" y="278" width="108" height="108"/></clipPath><clipPath id="clip2"><rect x="11" y="9" width="91" height="93"/></clipPath><clipPath id="clip3"><rect x="0" y="0" width="110" height="110"/></clipPath><clipPath id="clip4"><rect x="7" y="7" width="96" height="96"/></clipPath><clipPath id="clip5"><rect x="7" y="7" width="96" height="96"/></clipPath><clipPath id="clip6"><rect x="7" y="7" width="96" height="96"/></clipPath><clipPath id="clip7"><rect x="693" y="280" width="96" height="96"/></clipPath><clipPath id="clip8"><rect x="693" y="280" width="96" height="96"/></clipPath><clipPath id="clip9"><rect x="693" y="280" width="96" height="96"/></clipPath></defs><g clip-path="url(#clip1)" transform="translate(-687 -278)"><g clip-path="url(#clip2)" filter="url(#fx0)" transform="translate(686 277)"><g clip-path="url(#clip3)"><g clip-path="url(#clip4)"><g clip-path="url(#clip5)"><g clip-path="url(#clip6)"><path d="M84.6 43C87.2 49.3 87.6 56.3 86 62.9 82.6 64 79.4 65.5 76.4 67.5 72 70.5 69.4 73.6 66.3 77.3 63.5 80.7 60.5 83.9 57.3 86.9 56.6 87 55.8 87 55 87 51 87 47 86.2 43.2 84.7 42.6 85.2 41.9 85.6 41.3 86.1 58.5 93.7 78.5 85.9 86.1 68.7 90 59.9 90 49.8 86 41 85.6 41.7 85.1 42.4 84.6 43ZM60.7 86.5C63.7 83.6 65.9 80.9 67.9 78.6 70.9 75.1 73.4 72 77.6 69.2 80 67.6 82.6 66.3 85.3 65.3 81.5 76.2 72.2 84.4 60.7 86.5Z" stroke="#FFFFFF" fill="#C55A11"/><path d="M86.2 36.6C90 30.6 93.8 22.8 90.7 19.6 87.3 16.2 78.6 20.8 71.7 25.4 55.4 16.2 34.7 22 25.4 38.3 19.6 48.7 19.6 61.3 25.4 71.7 20.8 78.6 16.4 87.2 19.7 90.6 20.6 91.4 21.8 91.8 23 91.8 26.8 91.8 32.3 89 36.7 86.2 44.8 81 54.4 73 63.8 63.7 73.2 54.4 81.1 44.7 86.2 36.6ZM26.5 69.6C32.7 64.8 38.5 59.5 43.8 53.7 47.4 49.9 50.5 46.6 54.3 44.1 58.3 41.4 61.7 40.3 65.6 39.1 70.2 37.8 74.6 36 78.7 33.7 79.9 35 81 36.4 81.9 37.9 78.3 39.7 74.6 41.1 70.8 42.2 66.6 43.3 62.5 45.1 58.8 47.5 54.8 50.2 51.6 53.6 47.9 57.5 42.3 63.7 36.1 69.3 29.4 74.3 28.4 72.9 27.4 71.3 26.5 69.6L26.5 69.6ZM25.7 67.8C24 64 23.1 60 23 55.9 27.9 52 32.3 47.7 36.3 42.9 39.1 39.7 41.5 36.9 45.3 34.3 49.4 31.5 52.8 30.5 56.7 29.2 60.2 28.2 63.6 26.9 67 25.3 70.9 26.9 74.4 29.2 77.4 32.1 73.5 34.2 69.4 35.9 65.1 37.1 60.9 38.2 56.9 40 53.3 42.4 49.3 45.1 46.2 48.4 42.5 52.3 37.3 58 25.7 67.8 25.7 67.8ZM89.2 21C90.5 22.3 90 26.8 84.5 35.5 84.2 35.9 84 36.3 83.7 36.8 81.1 32.7 77.6 29.2 73.5 26.5 82.9 20.4 87.8 19.6 89.2 21ZM55 23C58.1 23 61.2 23.5 64.2 24.4 61.5 25.5 58.8 26.5 56.1 27.3 51.9 28.4 47.8 30.2 44.1 32.6 40.1 35.3 37.6 38.2 34.8 41.6 31.3 45.9 27.3 49.8 23 53.4 23.9 36.3 38 23 55 23ZM35.7 84.4C27 89.9 22.5 90.4 21.2 89.1 19.8 87.7 20.5 82.9 26.6 73.6 29.3 77.7 32.7 81.1 36.8 83.7 36.4 83.9 36 84.1 35.7 84.4ZM38.6 82.4C35.7 80.6 33 78.4 30.8 75.8 37.5 70.8 43.8 65.1 49.5 58.9 53.1 55.1 56.3 51.8 60.1 49.1 64.2 46.3 67.6 45.3 71.5 44 74.8 43 78 41.9 81 40.5 75.3 48.2 69.1 55.5 62.3 62.2 55 69.7 47.1 76.4 38.6 82.4Z" stroke="#FFFFFF" fill="#C55A11"/></g></g></g></g></g><g clip-path="url(#clip7)"><g clip-path="url(#clip8)"><g clip-path="url(#clip9)"><path d="M770.6 316C773.2 322.3 773.6 329.3 772 335.9 768.6 337 765.4 338.5 762.4 340.5 758 343.5 755.4 346.6 752.3 350.3 749.5 353.7 746.5 356.9 743.3 359.9 742.6 360 741.8 360 741 360 737 360 733 359.2 729.2 357.7 728.6 358.2 727.9 358.6 727.3 359.1 744.5 366.7 764.5 358.9 772.1 341.7 776 332.9 776 322.8 772 314 771.6 314.7 771.1 315.4 770.6 316ZM746.7 359.5C749.7 356.6 751.9 353.9 753.9 351.6 756.9 348.1 759.4 345 763.6 342.2 766 340.6 768.6 339.3 771.3 338.3 767.5 349.2 758.2 357.4 746.7 359.5Z" stroke="#FFFFFF" fill="#C55A11"/><path d="M772.2 309.6C776 303.6 779.8 295.8 776.7 292.6 773.3 289.2 764.6 293.8 757.7 298.4 741.4 289.2 720.7 295 711.4 311.3 705.6 321.7 705.6 334.3 711.4 344.7 706.8 351.6 702.4 360.2 705.7 363.6 706.6 364.4 707.8 364.8 709 364.8 712.8 364.8 718.3 362 722.7 359.2 730.8 354 740.4 346 749.8 336.7 759.2 327.4 767.1 317.7 772.2 309.6ZM712.5 342.6C718.7 337.8 724.5 332.5 729.8 326.7 733.4 322.9 736.5 319.6 740.3 317.1 744.3 314.4 747.7 313.3 751.6 312.1 756.2 310.8 760.6 309 764.7 306.7 765.9 308 767 309.4 767.9 310.9 764.3 312.7 760.6 314.1 756.8 315.2 752.6 316.3 748.5 318.1 744.8 320.5 740.8 323.2 737.6 326.6 733.9 330.5 728.3 336.7 722.1 342.3 715.4 347.3 714.4 345.9 713.4 344.3 712.5 342.6L712.5 342.6ZM711.7 340.8C710 337 709.1 333 709 328.9 713.9 325 718.3 320.7 722.3 315.9 725.1 312.7 727.5 309.9 731.3 307.3 735.4 304.5 738.8 303.5 742.7 302.2 746.2 301.2 749.6 299.9 753 298.3 756.9 299.9 760.4 302.2 763.4 305.1 759.5 307.2 755.4 308.9 751.1 310.1 746.9 311.2 742.9 313 739.3 315.4 735.3 318.1 732.2 321.4 728.5 325.3 723.3 331 711.7 340.8 711.7 340.8ZM775.2 294C776.5 295.3 776 299.8 770.5 308.5 770.2 308.9 770 309.3 769.7 309.8 767.1 305.7 763.6 302.2 759.5 299.5 768.9 293.4 773.8 292.6 775.2 294ZM741 296C744.1 296 747.2 296.5 750.2 297.4 747.5 298.5 744.8 299.5 742.1 300.3 737.9 301.4 733.8 303.2 730.1 305.6 726.1 308.3 723.6 311.2 720.8 314.6 717.3 318.9 713.3 322.8 709 326.4 709.9 309.3 724 296 741 296ZM721.7 357.4C713 362.9 708.5 363.4 707.2 362.1 705.8 360.7 706.5 355.9 712.6 346.6 715.3 350.7 718.7 354.1 722.8 356.7 722.4 356.9 722 357.1 721.7 357.4ZM724.6 355.4C721.7 353.6 719 351.4 716.8 348.8 723.5 343.8 729.8 338.1 735.5 331.9 739.1 328.1 742.3 324.8 746.1 322.1 750.2 319.3 753.6 318.3 757.5 317 760.8 316 764 314.9 767 313.5 761.3 321.2 755.1 328.5 748.3 335.2 741 342.7 733.1 349.4 724.6 355.4Z" stroke="#FFFFFF" fill="#C55A11"/></g></g></g></g></svg>